<svg width="1920" height="3240" viewBox="0 0 1920 3240" fill="none" xmlns="http://www.w3.org/2000/svg">
<g filter="url(#filter0_f_371_43)">
<ellipse cx="459.028" cy="698.5" rx="322.258" ry="277.5" fill="#A0C6FF" fill-opacity="0.67"/>
</g>
<g filter="url(#filter1_f_371_43)">
<path d="M837.805 567C835.822 383.4 396.229 382 278.563 392.5C160.898 483.167 107.419 645.2 77.2758 414C39.5963 125 847.225 254 1086.19 476C1325.16 698 1114.95 937.5 927.542 930C740.136 922.5 840.284 796.5 837.805 567Z" fill="#EA7F7F" fill-opacity="0.65"/>
<path d="M837.805 567C835.822 383.4 396.229 382 278.563 392.5C160.898 483.167 107.419 645.2 77.2758 414C39.5963 125 847.225 254 1086.19 476C1325.16 698 1114.95 937.5 927.542 930C740.136 922.5 840.284 796.5 837.805 567Z" stroke="black"/>
</g>
<g filter="url(#filter2_f_371_43)">
<path d="M932.499 309C813.115 182.6 458.036 191 295.42 211C527.446 0.500008 1219.06 187.5 1486.78 309C1754.51 430.5 1387.13 660.5 1361.35 684C1335.57 707.5 1081.73 467 932.499 309Z" fill="#6F6FF4"/>
<path d="M932.499 309C813.115 182.6 458.036 191 295.42 211C527.446 0.500008 1219.06 187.5 1486.78 309C1754.51 430.5 1387.13 660.5 1361.35 684C1335.57 707.5 1081.73 467 932.499 309Z" stroke="black"/>
</g>
<g filter="url(#filter3_f_371_43)">
<path d="M82.2335 569.5C74.6977 231.1 1009.18 173.833 1477.36 187.5C1309.13 439 928.633 863.2 752.531 548C576.429 232.8 326.819 375.333 224.027 486C179.903 654.833 89.7694 907.9 82.2335 569.5Z" fill="#FFF4F4" fill-opacity="0.74"/>
<path d="M82.2335 569.5C74.6977 231.1 1009.18 173.833 1477.36 187.5C1309.13 439 928.633 863.2 752.531 548C576.429 232.8 326.819 375.333 224.027 486C179.903 654.833 89.7694 907.9 82.2335 569.5Z" stroke="black"/>
</g>
<g filter="url(#filter4_f_371_43)">
<ellipse cx="717" cy="2066.5" rx="566" ry="446.5" fill="#CCE1FF" fill-opacity="0.66"/>
<path d="M1295 1949C703 1373 1427 1191.67 1863 1173C2219 1173 2047 1741 1927 2201C1807 2661 239 4089 3.00008 3345C-185.8 2749.8 423 2593 751 2589C1179 2615.67 1887 2525 1295 1949Z" fill="#72A3EB" fill-opacity="0.49" stroke="black"/>
<path d="M287 2041C280.6 1503.4 735 1547.67 963 1637C3.00012 325 -425 3745 -329 3221C-252.2 2801.8 1.66678 2697 119 2697C177.667 2702.33 293.4 2578.6 287 2041Z" fill="#EA7F87" fill-opacity="0.6" stroke="black"/>
<path d="M1867 3677C2798.2 4278.6 2383 2962.33 2059 2229C561.4 939.4 91 1102.33 43 1345C263 1871.67 935.8 3075.4 1867 3677Z" fill="#6969EB" fill-opacity="0.48" stroke="black"/>
</g>
<defs>
<filter id="filter0_f_371_43" x="-183.23" y="101" width="1284.52" height="1195" filterUnits="userSpaceOnUse" color-interpolation-filters="sRGB">
<feFlood flood-opacity="0" result="BackgroundImageFix"/>
<feBlend mode="normal" in="SourceGraphic" in2="BackgroundImageFix" result="shape"/>
<feGaussianBlur stdDeviation="160" result="effect1_foregroundBlur_371_43"/>
</filter>
<filter id="filter1_f_371_43" x="-244.5" y="-73.5739" width="1758.08" height="1324.25" filterUnits="userSpaceOnUse" color-interpolation-filters="sRGB">
<feFlood flood-opacity="0" result="BackgroundImageFix"/>
<feBlend mode="normal" in="SourceGraphic" in2="BackgroundImageFix" result="shape"/>
<feGaussianBlur stdDeviation="160" result="effect1_foregroundBlur_371_43"/>
</filter>
<filter id="filter2_f_371_43" x="-26.0835" y="-204.677" width="1930.58" height="1210.78" filterUnits="userSpaceOnUse" color-interpolation-filters="sRGB">
<feFlood flood-opacity="0" result="BackgroundImageFix"/>
<feBlend mode="normal" in="SourceGraphic" in2="BackgroundImageFix" result="shape"/>
<feGaussianBlur stdDeviation="160" result="effect1_foregroundBlur_371_43"/>
</filter>
<filter id="filter3_f_371_43" x="-238.312" y="-134.818" width="2036.59" height="1191.85" filterUnits="userSpaceOnUse" color-interpolation-filters="sRGB">
<feFlood flood-opacity="0" result="BackgroundImageFix"/>
<feBlend mode="normal" in="SourceGraphic" in2="BackgroundImageFix" result="shape"/>
<feGaussianBlur stdDeviation="160" result="effect1_foregroundBlur_371_43"/>
</filter>
<filter id="filter4_f_371_43" x="-942.685" y="572.5" width="3980.49" height="3858.06" filterUnits="userSpaceOnUse" color-interpolation-filters="sRGB">
<feFlood flood-opacity="0" result="BackgroundImageFix"/>
<feBlend mode="normal" in="SourceGraphic" in2="BackgroundImageFix" result="shape"/>
<feGaussianBlur stdDeviation="300" result="effect1_foregroundBlur_371_43"/>
</filter>
</defs>
</svg>
