<svg width="39" height="39" viewBox="0 0 39 39" fill="none" xmlns="http://www.w3.org/2000/svg">
<path d="M19.7499 0.212646C15.2384 0.212838 10.8741 1.85897 7.43794 4.85651C4.00182 7.85405 1.7181 12.0074 0.995403 16.5734C0.272709 21.1393 1.1582 25.82 3.49344 29.7778C5.82868 33.7356 9.46128 36.7124 13.7412 38.1754C14.6912 38.3458 15.0475 37.7614 15.0475 37.25C15.0475 36.7874 15.0237 35.2533 15.0237 33.6218C10.25 34.5227 9.01499 32.4287 8.635 31.3329C8.21334 30.2672 7.54493 29.3227 6.68751 28.5812C6.02251 28.2159 5.07252 27.315 6.66374 27.2907C7.27133 27.3583 7.85408 27.575 8.3626 27.9226C8.87112 28.2702 9.29042 28.7383 9.58499 29.2874C9.84485 29.766 10.1943 30.1873 10.6132 30.5273C11.0322 30.8672 11.5125 31.1191 12.0265 31.2683C12.5406 31.4176 13.0783 31.4615 13.6089 31.3973C14.1395 31.3332 14.6526 31.1623 15.1187 30.8945C15.2009 29.9041 15.6314 28.9782 16.3299 28.289C12.1025 27.802 7.685 26.1218 7.685 18.6705C7.6583 16.7344 8.3551 14.8613 9.63249 13.4351C9.05163 11.7524 9.11959 9.90581 9.82249 8.27278C9.82249 8.27278 11.4137 7.7614 15.0475 10.2695C18.1564 9.39286 21.4385 9.39286 24.5474 10.2695C28.1811 7.73707 29.7723 8.27278 29.7723 8.27278C30.4753 9.90578 30.5433 11.7525 29.9623 13.4351C31.2436 14.8588 31.941 16.7336 31.9098 18.6705C31.9098 26.1461 27.4686 27.802 23.2411 28.289C23.6946 28.7603 24.0438 29.326 24.2651 29.9478C24.4864 30.5697 24.5746 31.2331 24.5236 31.893C24.5236 34.4985 24.4999 36.5926 24.4999 37.2501C24.4999 37.7615 24.8561 38.3702 25.8061 38.1754C30.0785 36.7005 33.7007 33.7168 36.026 29.7569C38.3513 25.7971 39.2284 21.1188 38.5007 16.5573C37.773 11.9957 35.4878 7.8478 32.0532 4.85391C28.6186 1.86002 24.258 0.215052 19.7499 0.212646Z" fill="black"/>
</svg>
