<svg width="114" height="114" viewBox="0 0 114 114" fill="none" xmlns="http://www.w3.org/2000/svg">
<g id="Vector" filter="url(#filter0_d_114_32)">
<path d="M79.3125 11H34.6875C23.8144 11 15 19.8144 15 30.6875V75.3125C15 86.1856 23.8144 95 34.6875 95H79.3125C90.1856 95 99 86.1856 99 75.3125V30.6875C99 19.8144 90.1856 11 79.3125 11Z" fill="#F4F2ED"/>
<path d="M63.1451 16.9062C62.6346 16.9062 62.1604 17.0185 61.7227 17.1684C62.6529 17.8047 63.1635 18.647 63.4188 19.6015C63.4372 19.7324 63.4736 19.8259 63.4916 19.9568C63.51 20.0694 63.5284 20.1816 63.5284 20.2938C63.6012 21.941 63.1087 22.1467 62.7622 23.12C62.2333 24.374 62.3793 25.7213 63.0175 26.8071C63.0723 26.938 63.1451 27.0876 63.2363 27.2189C62.5433 22.4837 66.3916 21.7723 67.103 20.2938C67.1574 19.0023 66.1179 18.1413 65.2973 17.5425C64.5131 17.0559 63.8017 16.9062 63.1451 16.9062ZM68.9451 17.973C68.8719 18.4035 68.9267 18.2913 68.9086 18.5157C68.8903 18.6657 68.8903 18.8527 68.8719 19.0023C68.8379 19.1544 68.7953 19.3045 68.7443 19.4518C68.7078 19.6015 68.653 19.7511 68.5986 19.9007C68.5254 20.0507 68.4709 20.1816 68.3977 20.3312C68.3433 20.406 68.3065 20.4808 68.2521 20.556L68.1425 20.7243C68.0512 20.8556 67.96 20.9865 67.8688 21.0984C67.7595 21.2109 67.6683 21.3418 67.5407 21.4354V21.4544C67.4311 21.5479 67.3218 21.6601 67.1942 21.7536C66.8113 22.0532 66.3735 22.2777 65.9722 22.5585C65.8446 22.652 65.717 22.7269 65.6074 22.8391C65.4797 22.9329 65.3705 23.0261 65.2609 23.1387C65.1332 23.2509 65.042 23.3631 64.9327 23.4943C64.8415 23.6066 64.7319 23.7375 64.6591 23.8684C64.5679 23.9997 64.4767 24.1309 64.4038 24.2615C64.3306 24.4115 64.2762 24.5424 64.203 24.692C64.1485 24.842 64.0937 24.9729 64.0573 25.1225C64.0025 25.2912 63.9661 25.4408 63.9297 25.5904C63.9113 25.6652 63.9113 25.7591 63.8929 25.8339C63.8749 25.9087 63.8749 25.9835 63.8565 26.0583C63.8565 26.2079 63.8385 26.3766 63.8385 26.5262C63.8385 26.6384 63.8385 26.751 63.8565 26.8632C63.8565 27.0128 63.8749 27.1625 63.9113 27.3311C63.9297 27.4807 63.9661 27.6304 64.0025 27.7803C64.0573 27.9299 64.0937 28.0796 64.1485 28.2295C64.185 28.323 64.2398 28.4165 64.2762 28.4914L60.0814 26.8258C59.3809 26.6212 58.6755 26.434 57.9657 26.2644L56.8166 25.9835C55.7194 25.7589 54.6116 25.5903 53.4973 25.4782C53.4608 25.4782 53.4428 25.4595 53.406 25.4595C52.3215 25.3473 51.2319 25.291 50.1415 25.2908C49.3389 25.2908 48.5367 25.3282 47.7525 25.3847C46.6401 25.4595 45.5274 25.6091 44.4148 25.7965C44.1411 25.8339 43.8678 25.89 43.5941 25.9461C43.0288 26.0583 42.4818 26.1892 41.9525 26.3202L41.1322 26.5449C40.8582 26.6571 40.6029 26.7884 40.348 26.9006L39.7459 27.1812C39.7095 27.1999 39.673 27.1999 39.6547 27.2186C39.4722 27.3124 39.3082 27.3872 39.1441 27.4807C39.1 27.496 39.0572 27.5148 39.0161 27.5368C38.816 27.6304 38.6152 27.7426 38.4511 27.8364C38.3231 27.8922 38.1955 27.9673 38.0862 28.0235C38.0314 28.0609 37.9583 28.0983 37.9222 28.117C37.7581 28.2108 37.594 28.304 37.4477 28.3978C37.2836 28.4914 37.1379 28.5849 37.01 28.6784C36.8823 28.7722 36.7547 28.847 36.6454 28.9406C36.627 28.9593 36.609 28.9593 36.5906 28.978C36.4814 29.0528 36.3537 29.1463 36.2441 29.2401L36.2077 29.2775L35.934 29.502C35.898 29.5207 35.8612 29.5581 35.8248 29.5768C35.7336 29.6516 35.6423 29.7455 35.5511 29.8203C35.5327 29.8577 35.4963 29.876 35.4783 29.8951C35.3687 30.0073 35.2594 30.1008 35.1502 30.2134C35.1315 30.2134 35.1315 30.2321 35.1134 30.2508C35.0038 30.3443 34.8945 30.4565 34.7853 30.569C34.7669 30.5874 34.7669 30.6061 34.7485 30.6061C34.6573 30.6996 34.5664 30.7932 34.4752 30.9057C34.4388 30.9431 34.384 30.9805 34.3472 31.0179C34.2563 31.1301 34.1471 31.2427 34.0375 31.3549C34.0191 31.3923 33.9827 31.411 33.9643 31.4484C33.8186 31.598 33.6907 31.748 33.545 31.8976L33.4902 31.9537C33.1981 32.272 32.8884 32.5903 32.5599 32.8708C32.2318 33.1704 31.8853 33.451 31.5388 33.6944C31.1855 33.9486 30.8203 34.1859 30.4445 34.4055C30.0727 34.6148 29.689 34.8022 29.2954 34.9669C28.9078 35.136 28.5122 35.2861 28.1099 35.4164C27.3441 35.5848 26.5598 35.9027 25.8852 35.9588C25.7389 35.9588 25.5748 35.9962 25.4291 36.0153C25.2651 36.0527 25.119 36.0901 24.973 36.1275C24.827 36.1833 24.681 36.2397 24.5353 36.2958C24.3893 36.3519 24.2433 36.4271 24.0976 36.5019C23.9696 36.5954 23.8239 36.6702 23.6963 36.7637C23.5664 36.8598 23.4445 36.9662 23.3318 37.082C23.2038 37.1755 23.0761 37.3064 22.9669 37.4187C22.8573 37.5499 22.748 37.6621 22.6568 37.793C22.5656 37.943 22.4563 38.0739 22.3831 38.2235C22.2919 38.3548 22.2007 38.5044 22.1279 38.654C22.055 38.8224 21.9818 38.9723 21.9274 39.1407C21.8726 39.2903 21.8178 39.4589 21.7633 39.6273C21.7266 39.7769 21.6901 39.9268 21.6721 40.0765C21.6721 40.0952 21.6537 40.1139 21.6537 40.1326C21.6173 40.3012 21.6173 40.5257 21.5989 40.6379C21.5805 40.7691 21.5625 40.8814 21.5625 41.0123C21.5625 41.0871 21.5625 41.1806 21.5809 41.2558C21.5989 41.3867 21.617 41.4989 21.6537 41.6111C21.6901 41.7237 21.7269 41.8359 21.7817 41.9481V41.9668C21.8362 42.079 21.909 42.1912 21.9818 42.3038C22.055 42.416 22.1279 42.5282 22.2191 42.6404C22.3103 42.7343 22.4199 42.8465 22.5292 42.94C22.6359 43.0496 22.7518 43.1498 22.8757 43.2396C23.3134 43.6324 23.423 43.7636 23.988 44.0629C24.0795 44.1193 24.1704 44.1567 24.28 44.2128C24.2984 44.2128 24.3165 44.2315 24.3348 44.2315C24.3348 44.2689 24.3348 44.2876 24.3529 44.325C24.3712 44.4747 24.4077 44.6246 24.4441 44.7742C24.4805 44.9426 24.5353 45.0925 24.5901 45.2234C24.6449 45.3357 24.6813 45.4479 24.7361 45.5604C24.7542 45.5978 24.7722 45.6352 24.7906 45.6539C24.8638 45.8036 24.9366 45.9345 25.0095 46.0657L25.2831 46.4588C25.3743 46.571 25.4839 46.702 25.5932 46.8142C25.7028 46.9267 25.812 47.0202 25.9397 47.1325C25.9397 47.1325 25.9581 47.1512 25.9761 47.1512C26.0857 47.2447 26.195 47.3385 26.3042 47.4133C26.4322 47.5069 26.5598 47.5817 26.7059 47.6565C26.84 47.7361 26.9802 47.805 27.1252 47.8625C27.2345 47.9187 27.3621 47.9561 27.4901 47.9935C27.5081 48.0122 27.5262 48.0122 27.5629 48.0309C27.6358 48.0496 27.727 48.0683 27.8002 48.087C27.7454 49.0976 27.727 50.0521 27.873 50.3891C28.0371 50.7635 28.8397 49.6216 29.6423 48.3114C29.5327 49.6029 29.4598 51.1189 29.6423 51.5681C29.8424 52.036 30.937 50.5761 31.8853 48.9667C44.8161 45.8971 56.6161 55.0682 57.8564 68.0196C57.6192 65.998 55.1937 64.8752 54.081 65.156C53.534 66.5407 52.6038 68.3188 51.1082 69.423C51.2362 68.1879 51.1814 66.9151 50.9261 65.6801C50.5248 67.4017 49.7406 69.0115 48.6643 70.3962C46.9318 70.5275 45.1993 69.6665 44.2871 68.375C44.2143 68.3188 44.1962 68.2066 44.1414 68.1318C44.0866 68.0006 44.0318 67.8696 43.9954 67.7387C43.9422 67.6129 43.9055 67.4808 43.8862 67.3456C43.8678 67.2147 43.8678 67.0838 43.8678 66.9338V66.6533C43.8862 66.522 43.9226 66.3911 43.959 66.2602C43.9951 66.1293 44.0318 65.998 44.0866 65.8671C44.1595 65.7362 44.2143 65.6053 44.3055 65.474C44.6156 64.5756 44.6156 63.8458 44.0502 63.4153C43.9409 63.3421 43.8249 63.2795 43.7037 63.2283C43.6305 63.2093 43.5397 63.1719 43.4665 63.1532C43.4117 63.1345 43.3753 63.1158 43.3208 63.0971C43.1928 63.0597 43.0652 63.0222 42.9375 63.0035C42.8132 62.9666 42.6843 62.9477 42.5546 62.9474C42.4219 62.9257 42.2878 62.9132 42.1533 62.91C42.0621 62.91 41.9709 62.9287 41.8797 62.9287C41.734 62.9287 41.6063 62.9474 41.4787 62.9848C41.3507 63.0035 41.2231 63.0223 41.0955 63.0597C40.9678 63.0971 40.8402 63.1348 40.7125 63.1909C40.5849 63.247 40.4756 63.3031 40.348 63.3592C40.2384 63.4153 40.1288 63.4902 40.0012 63.5463C35.7519 66.3911 38.287 73.054 41.1867 74.9818C40.0924 75.1878 38.98 75.431 38.67 75.6744L38.6335 75.7118C39.4178 76.1984 40.2384 76.6102 41.0958 76.9656C42.0726 77.2908 43.0577 77.5904 44.0502 77.864V77.8827C45.5602 78.2007 47.1061 78.314 48.6463 78.2197C56.7257 77.6396 63.3459 71.3323 64.5498 63.0223C64.5863 63.1909 64.6227 63.3405 64.6591 63.5089C64.7139 63.8458 64.7867 64.2015 64.8235 64.5569V64.5759C64.8599 64.7443 64.878 64.9126 64.8963 65.0625V65.1373C64.9147 65.3057 64.9327 65.4743 64.9327 65.624C64.9511 65.8297 64.9692 66.0357 64.9692 66.2415V66.5411C64.9692 66.6346 64.9875 66.7468 64.9875 66.8403C64.9875 66.9529 64.9692 67.0651 64.9692 67.1773V67.4395C64.9692 67.5704 64.9511 67.6826 64.9511 67.8139C64.9511 67.8887 64.9511 67.9635 64.9327 68.057C64.9327 68.1879 64.9144 68.3192 64.9144 68.4688C64.896 68.5249 64.896 68.581 64.896 68.6371C64.878 68.7871 64.8596 68.918 64.8415 69.0676C64.8415 69.1237 64.8415 69.1798 64.8232 69.2363C64.8048 69.4233 64.7684 69.5916 64.7503 69.779V69.8164C64.7139 69.9847 64.6771 70.1721 64.6407 70.3404V70.3965L64.5315 70.9018C64.5315 70.9205 64.5131 70.958 64.5131 70.9767C64.4792 71.1473 64.4366 71.316 64.3854 71.4823V71.5384C64.3306 71.7254 64.2758 71.8938 64.2394 72.0624C64.2214 72.0811 64.2214 72.0998 64.2214 72.0998L64.057 72.6612C63.9841 72.8483 63.9293 73.0169 63.8565 73.204C63.7837 73.391 63.7289 73.5784 63.656 73.7467C63.5828 73.934 63.51 74.1024 63.4372 74.2894H63.4188C63.3456 74.4581 63.2728 74.6451 63.1815 74.8134C63.1667 74.8585 63.1483 74.9024 63.1267 74.9447C63.1087 74.9634 63.1087 74.9821 63.0903 75.0008C61.9048 77.4525 60.1543 79.6047 57.9657 81.2893C57.8197 81.3828 57.6736 81.495 57.528 81.6076C57.4915 81.6447 57.4367 81.6637 57.4003 81.7011C57.2723 81.7946 57.1447 81.8881 56.999 81.9816L57.0535 82.0942H57.0719L57.838 81.9816H57.8561C58.3302 81.9068 58.8047 81.8133 59.2788 81.7198C59.4145 81.6975 59.5486 81.6663 59.6801 81.6263C59.771 81.6073 59.8442 81.5889 59.9354 81.5698C60.063 81.5511 60.1907 81.5137 60.3183 81.495C60.4276 81.4576 60.5372 81.4389 60.6465 81.4015C62.4705 80.9523 64.2394 80.3348 65.9355 79.6047C63.0359 83.6662 59.1512 86.9416 54.6099 89.0938C56.7073 88.9441 58.8047 88.5884 60.8289 87.9896C68.1789 85.7623 74.3618 80.6901 78.064 73.8589C77.3162 78.1823 75.6382 82.2999 73.1579 85.8932C74.93 84.693 76.5633 83.2996 78.0276 81.7385C82.1127 77.359 84.7938 71.8002 85.7057 65.83C86.328 68.7941 86.5063 71.8343 86.2346 74.8508C99.4026 56.004 87.3289 36.4645 82.2771 31.3178C82.2587 31.2804 82.2407 31.2614 82.2407 31.224C82.2223 31.243 82.2223 31.243 82.2223 31.2614C82.2223 31.2427 82.2223 31.2427 82.2039 31.224C82.2039 31.4487 82.1856 31.6735 82.1675 31.898C82.117 32.3173 82.0562 32.7354 81.9851 33.1517C81.8939 33.5635 81.7846 33.9753 81.675 34.3871C81.5454 34.7921 81.3993 35.1916 81.2373 35.5848C81.0698 35.9723 80.8874 36.3533 80.6903 36.7266C80.4895 37.0823 80.2706 37.4564 80.0337 37.7934C79.7993 38.141 79.5498 38.4782 79.2859 38.804C79.0123 39.141 78.7206 39.4406 78.4289 39.7398C78.2464 39.9085 78.082 40.0581 77.8999 40.2077C77.7539 40.339 77.6263 40.4512 77.4803 40.5818C77.1521 40.8443 76.8237 41.0871 76.4591 41.3119C76.1126 41.5366 75.7478 41.7614 75.3829 41.9484C75.0035 42.1308 74.6205 42.3055 74.2341 42.4724C73.8456 42.6229 73.45 42.7541 73.0486 42.8655C72.6455 42.9767 72.2379 43.0704 71.8267 43.1461C71.407 43.2212 70.9876 43.2586 70.5863 43.296C70.2946 43.3147 70.0026 43.3334 69.7109 43.3334C69.2916 43.3334 68.8719 43.296 68.4706 43.2583C68.0512 43.2209 67.6319 43.1648 67.2306 43.0713C66.8109 42.9965 66.41 42.8842 66.0087 42.753H65.9903C66.3916 42.7156 66.7929 42.6782 67.1942 42.6034C67.6058 42.5295 68.0136 42.4358 68.4161 42.3225C68.8174 42.2111 69.213 42.0799 69.6013 41.9294C70.0026 41.7798 70.3855 41.5927 70.7504 41.4054C71.1333 41.2183 71.4798 41.0126 71.8447 40.7878C72.1912 40.5447 72.5377 40.3012 72.8662 40.0394C73.1933 39.7782 73.5039 39.4969 73.7961 39.1971C74.1061 38.9162 74.3798 38.5983 74.6535 38.28C74.9203 37.9521 75.1758 37.615 75.4193 37.2694C75.4557 37.2132 75.4925 37.1381 75.5289 37.0823C75.7119 36.7867 75.8882 36.4871 76.0578 36.1836C76.2585 35.8121 76.441 35.4312 76.6048 35.042C76.7697 34.65 76.9158 34.2504 77.0425 33.8444C77.1702 33.4513 77.2614 33.0395 77.3526 32.6277C77.4258 32.1972 77.4986 31.7854 77.535 31.3739C77.5715 30.9434 77.6079 30.5129 77.6079 30.1008C77.6079 29.8016 77.5898 29.5023 77.5715 29.2027C77.535 28.7722 77.4802 28.3604 77.4258 27.9486C77.3538 27.5268 77.2625 27.1084 77.1521 26.6949C77.0245 26.3018 76.8968 25.89 76.7508 25.4972C76.6048 25.1038 76.4227 24.711 76.2403 24.3366C76.0395 23.9626 75.839 23.5879 75.6201 23.2325C75.3875 22.882 75.1442 22.5386 74.8907 22.2028C74.617 21.8846 74.3434 21.5666 74.0517 21.2483C73.9057 21.0987 73.7416 20.93 73.5775 20.7808C72.7614 20.1304 71.9154 19.5183 71.0424 18.9465C70.9249 18.8766 70.803 18.8141 70.6776 18.7595C70.0758 18.3661 69.5104 18.1603 68.9451 17.9733V17.973Z" fill="#E0234E"/>
</g>
<defs>
<filter id="filter0_d_114_32" x="0" y="0" width="114" height="114" filterUnits="userSpaceOnUse" color-interpolation-filters="sRGB">
<feFlood flood-opacity="0" result="BackgroundImageFix"/>
<feColorMatrix in="SourceAlpha" type="matrix" values="0 0 0 0 0 0 0 0 0 0 0 0 0 0 0 0 0 0 127 0" result="hardAlpha"/>
<feOffset dy="4"/>
<feGaussianBlur stdDeviation="7.5"/>
<feComposite in2="hardAlpha" operator="out"/>
<feColorMatrix type="matrix" values="0 0 0 0 0 0 0 0 0 0 0 0 0 0 0 0 0 0 0.25 0"/>
<feBlend mode="normal" in2="BackgroundImageFix" result="effect1_dropShadow_114_32"/>
<feBlend mode="normal" in="SourceGraphic" in2="effect1_dropShadow_114_32" result="shape"/>
</filter>
</defs>
</svg>
