<svg width="114" height="114" viewBox="0 0 114 114" fill="none" xmlns="http://www.w3.org/2000/svg">
<g id="Vector" filter="url(#filter0_d_114_33)">
<path d="M79.3125 11H34.6875C23.8144 11 15 19.8144 15 30.6875V75.3125C15 86.1856 23.8144 95 34.6875 95H79.3125C90.1856 95 99 86.1856 99 75.3125V30.6875C99 19.8144 90.1856 11 79.3125 11Z" fill="#242938"/>
<path d="M54.8511 20.2052C54.71 20.218 54.2608 20.263 53.8566 20.2948C44.5358 21.1351 35.8051 26.1646 30.2752 33.8946C27.1964 38.1927 25.2267 43.068 24.4828 48.2323C24.22 50.0351 24.1878 50.5676 24.1878 53.0115C24.1878 55.4557 24.22 55.9882 24.4831 57.7906C26.2662 70.1137 35.0356 80.4677 46.9289 84.3038C49.0587 84.9902 51.3037 85.4585 53.8569 85.7406C54.8514 85.8496 59.1492 85.8496 60.1438 85.7406C64.5508 85.253 68.2842 84.1627 71.9664 82.2829C72.5308 81.9944 72.6401 81.9173 72.563 81.8533C72.5118 81.8146 70.106 78.5878 67.2195 74.6877L61.9721 67.5993L55.3965 57.8677C51.7785 52.5177 48.8021 48.1424 48.7762 48.1424C48.7506 48.1362 48.725 52.4599 48.7122 57.7394C48.6929 66.9834 48.6866 67.3555 48.5711 67.5733C48.4044 67.8877 48.2761 68.016 48.0064 68.1574C47.8013 68.2598 47.6215 68.2791 46.6529 68.2791H45.5432L45.2479 68.0931C45.0651 67.9786 44.9166 67.8168 44.818 67.6249L44.6835 67.3361L44.7157 41.6059L44.9145 41.3555C45.0172 41.221 45.2354 41.0477 45.3893 40.9644C45.6521 40.8361 45.7548 40.8233 46.8645 40.8233C48.1734 40.8233 48.3913 40.8745 48.7316 41.2466C48.8277 41.3493 52.3879 46.7121 56.6476 53.1719C60.96 59.7105 65.2751 66.2473 69.5928 72.7823L74.789 80.6537L75.0521 80.4805C77.3805 78.9665 79.8441 76.811 81.7941 74.5657C85.9446 69.7993 88.6198 63.9876 89.5179 57.7906C89.7807 55.9882 89.8128 55.4557 89.8128 53.0115C89.8128 50.5676 89.7807 50.0351 89.5179 48.2323C87.7345 35.9093 78.965 25.5556 67.0718 21.7195C64.9741 21.0393 62.7419 20.5711 60.2399 20.2889C59.624 20.2246 55.3837 20.1544 54.8514 20.2055L54.8511 20.2052ZM68.2839 40.0532C68.5917 40.2071 68.842 40.502 68.9319 40.8098C68.9831 40.9768 68.9959 44.5436 68.9831 52.5813L68.9638 64.1156L66.9304 60.9977L64.8904 57.8802V49.496C64.8904 44.0753 64.916 41.028 64.9544 40.8804C65.0571 40.5214 65.2815 40.2392 65.5897 40.0722C65.8525 39.9377 65.949 39.9245 66.956 39.9245C67.9056 39.9245 68.0723 39.9377 68.2839 40.0532Z" fill="white"/>
</g>
<defs>
<filter id="filter0_d_114_33" x="0" y="0" width="114" height="114" filterUnits="userSpaceOnUse" color-interpolation-filters="sRGB">
<feFlood flood-opacity="0" result="BackgroundImageFix"/>
<feColorMatrix in="SourceAlpha" type="matrix" values="0 0 0 0 0 0 0 0 0 0 0 0 0 0 0 0 0 0 127 0" result="hardAlpha"/>
<feOffset dy="4"/>
<feGaussianBlur stdDeviation="7.5"/>
<feComposite in2="hardAlpha" operator="out"/>
<feColorMatrix type="matrix" values="0 0 0 0 0 0 0 0 0 0 0 0 0 0 0 0 0 0 0.25 0"/>
<feBlend mode="normal" in2="BackgroundImageFix" result="effect1_dropShadow_114_33"/>
<feBlend mode="normal" in="SourceGraphic" in2="effect1_dropShadow_114_33" result="shape"/>
</filter>
</defs>
</svg>
