<svg width="61" height="61" viewBox="0 0 61 61" fill="none" xmlns="http://www.w3.org/2000/svg">
<path d="M61 30.5C61 47.3447 47.3447 61 30.5 61C13.6553 61 0 47.3447 0 30.5C0 13.6553 13.6553 0 30.5 0C47.3447 0 61 13.6553 61 30.5Z" fill="black"/>
<path d="M12 37.1636H25.633V44H32.4361V31.646H18.8299L32.4361 18H25.633L12 31.646V37.1636Z" fill="white"/>
<path d="M35.367 24.8364L42.1701 18H35.367V24.8364Z" fill="white"/>
<path d="M42.1701 24.8364L35.367 31.646V38.4555H42.1701V31.646L49 24.8364V18H42.1701V24.8364Z" fill="white"/>
<path d="M49 31.646L42.1701 38.4555H49V31.646Z" fill="white"/>
</svg>
