<svg width="113" height="114" viewBox="0 0 113 114" fill="none" xmlns="http://www.w3.org/2000/svg">
<g filter="url(#filter0_d_114_70)">
<rect x="15" y="11" width="83" height="84" rx="18" fill="white"/>
<path d="M76.5465 72.1493C77.0749 67.6967 76.9161 67.047 80.1907 67.7656L81.0239 67.8411C83.5431 67.9559 86.8372 67.4309 88.8052 66.522C92.9714 64.5664 95.4419 61.2983 91.3341 62.1579C81.9642 64.1136 81.2833 60.9012 81.2833 60.9012C91.1817 46.0372 95.322 27.17 91.7458 22.5533C82.0063 9.95326 65.1437 15.912 64.8616 16.0695L64.7708 16.0859C62.9228 15.6922 60.8802 15.4625 58.5134 15.4297C54.2726 15.364 51.0564 16.5551 48.6118 18.4287C48.6118 18.4287 18.534 5.88779 19.9314 34.2017C20.2297 40.2261 28.4583 79.8111 38.2822 67.8345C41.8777 63.4573 45.3469 59.7594 45.3469 59.7594C47.0652 60.9176 49.1305 61.5083 51.2931 61.295L51.4617 61.1506C51.4118 61.7178 51.4346 62.2891 51.5297 62.8503C49.0008 65.7115 49.7465 66.2136 44.6887 67.2669C39.5725 68.3333 42.5813 70.2331 44.5396 70.7319C46.9193 71.3356 52.4246 72.1887 56.1466 66.919L55.9975 67.5195C56.9896 68.3234 56.9215 73.2945 57.0674 76.8448C57.2133 80.3951 57.4435 83.7125 58.16 85.6648C58.8765 87.6172 59.7163 92.6539 66.3627 91.2429C71.9166 90.0387 76.1639 88.3029 76.5529 72.1789" fill="black"/>
<path d="M76.5465 72.1493C77.0749 67.6967 76.9161 67.047 80.1907 67.7656L81.0239 67.8411C83.5431 67.9559 86.8372 67.4309 88.8052 66.522C92.9714 64.5664 95.4419 61.2983 91.3341 62.1579C81.9642 64.1136 81.2833 60.9012 81.2833 60.9012C91.1817 46.0372 95.322 27.17 91.7458 22.5533C82.0063 9.95326 65.1437 15.912 64.8616 16.0695L64.7708 16.0859C62.9228 15.6922 60.8802 15.4625 58.5134 15.4297C54.2726 15.364 51.0564 16.5551 48.6118 18.4287C48.6118 18.4287 18.534 5.88779 19.9314 34.2017C20.2297 40.2261 28.4583 79.8111 38.2822 67.8345C41.8777 63.4573 45.3469 59.7594 45.3469 59.7594C47.0652 60.9176 49.1305 61.5083 51.2931 61.295L51.4617 61.1506C51.4118 61.7178 51.4346 62.2891 51.5297 62.8503C49.0008 65.7115 49.7465 66.2136 44.6887 67.2669C39.5726 68.3333 42.5813 70.2331 44.5396 70.7319C46.9193 71.3356 52.4246 72.1887 56.1466 66.919L55.9975 67.5195C56.9896 68.3234 56.9215 73.2945 57.0674 76.8448C57.2133 80.3951 57.4435 83.7125 58.16 85.6648C58.8765 87.6172 59.7163 92.6539 66.3627 91.2429C71.9166 90.0387 76.1639 88.3029 76.5529 72.1789" stroke="black" stroke-width="5.3725"/>
<path d="M91.3049 62.1875C81.9349 64.1431 81.2541 60.9307 81.2541 60.9307C91.1525 46.0667 95.2927 27.1995 91.7199 22.5828C81.9803 9.98277 65.1177 15.9448 64.8356 16.099L64.7449 16.1154C62.6852 15.6972 60.5912 15.4764 58.4907 15.4559C54.2499 15.3903 51.0336 16.5814 48.589 18.455C48.589 18.455 18.508 5.91402 19.9086 34.2279C20.2069 40.2523 28.4356 79.8373 38.2594 67.8607C41.8777 63.4573 45.3468 59.7593 45.3468 59.7593C47.0652 60.9176 49.1305 61.5082 51.293 61.2949L51.4616 61.1506C51.4121 61.7177 51.435 62.289 51.5297 62.8503C49.0008 65.7115 49.7465 66.2135 44.6887 67.2668C39.5725 68.3332 42.5813 70.2331 44.5395 70.7318C46.9193 71.3356 52.4245 72.1887 56.1466 66.919L55.9974 67.5195C56.9895 68.3234 57.6834 72.7465 57.5667 76.7562C57.4499 80.7659 57.3721 83.5156 58.1502 85.6681C58.9284 87.8206 59.7065 92.6571 66.353 91.2462C71.9068 90.042 74.7827 86.9149 75.1879 81.7109C75.4733 78.0096 76.1152 78.5543 76.1606 75.2468L76.6793 73.6784C77.2727 68.6581 76.7766 67.0404 80.1971 67.7951L81.0304 67.8706C83.5495 67.9854 86.8468 67.4604 88.7792 66.5515C92.9454 64.5959 95.4127 61.3278 91.3049 62.1875Z" fill="#336791"/>
<path d="M56.5454 65.0323C56.286 74.3707 56.6103 83.7748 57.5116 86.0323C58.4129 88.2898 60.3485 92.7588 66.9982 91.3217C72.5521 90.1174 74.5752 87.7845 75.4506 82.6362L77.5029 66.1742M48.5761 18.2187C48.5761 18.2187 18.4756 5.76307 19.8763 34.077C20.1745 40.1013 28.4032 79.6863 38.227 67.7098C41.8129 63.3359 45.0551 59.9135 45.0551 59.9135M64.8324 15.9448C63.7949 16.2729 81.5751 9.36588 91.6842 22.4351C95.2506 27.0518 91.1169 45.919 81.2185 60.7831" stroke="white" stroke-width="1.79" stroke-linecap="round" stroke-linejoin="round"/>
<path d="M81.2217 60.7765C81.2217 60.7765 81.8701 63.9921 91.2725 62.03C95.3803 61.1703 92.9066 64.4384 88.7436 66.394C85.3263 68.0018 77.6618 68.412 77.5353 66.1971C77.2111 60.4714 81.5686 62.2104 81.2541 60.7765C80.9688 59.4837 79.017 58.2171 77.7331 55.054C76.6081 52.2978 62.3003 31.1337 81.7016 34.2739C82.4148 34.1262 76.6437 15.5707 58.4875 15.3017C40.3312 15.0326 40.9051 37.8931 40.9051 37.8931" stroke="white" stroke-width="1.79" stroke-linecap="round" stroke-linejoin="bevel"/>
<path d="M51.4648 62.7387C48.9359 65.5999 49.6816 66.102 44.6238 67.1552C39.5076 68.2216 42.5163 70.1215 44.4746 70.6202C46.8544 71.224 52.3596 72.0771 56.0817 66.8041C57.2164 65.1963 56.0752 62.637 54.5189 61.9873C53.7667 61.6723 52.7617 61.2785 51.4713 62.742L51.4648 62.7387Z" stroke="white" stroke-width="1.79" stroke-linejoin="round"/>
<path d="M51.2995 62.6894C51.0401 61.0061 51.8442 59.0079 52.7034 56.6651C53.9937 53.1541 56.9701 49.6432 54.5903 38.4968C52.8168 30.1952 40.9083 36.7676 40.9083 37.893C40.9083 39.0185 41.4465 43.6024 40.7137 48.9344C39.7508 55.8972 45.0907 61.7838 51.2379 61.1833" stroke="white" stroke-width="1.79" stroke-linecap="round" stroke-linejoin="round"/>
<path d="M48.4659 37.7257C48.4107 38.1096 49.1629 39.1366 50.1388 39.2744C51.1147 39.4122 51.948 38.6116 52.0031 38.2244C52.0582 37.8372 51.306 37.4172 50.3301 37.2794C49.3542 37.1416 48.5145 37.345 48.4659 37.7257Z" fill="white" stroke="white" stroke-width="0.5975"/>
<path d="M78.1773 36.9415C78.2292 37.3254 77.4802 38.3524 76.5043 38.4902C75.5284 38.628 74.6887 37.8274 74.6401 37.4402C74.5914 37.053 75.3371 36.633 76.313 36.4952C77.2889 36.3574 78.1287 36.5609 78.1773 36.9415Z" fill="white" stroke="white" stroke-width="0.2975"/>
<path d="M81.6659 34.2804C81.828 37.2991 81.024 39.3499 80.9202 42.5623C80.7711 47.2282 83.1184 52.5701 79.5812 57.9185" stroke="white" stroke-width="1.79" stroke-linecap="round" stroke-linejoin="round"/>
</g>
<defs>
<filter id="filter0_d_114_70" x="0" y="0" width="113" height="114" filterUnits="userSpaceOnUse" color-interpolation-filters="sRGB">
<feFlood flood-opacity="0" result="BackgroundImageFix"/>
<feColorMatrix in="SourceAlpha" type="matrix" values="0 0 0 0 0 0 0 0 0 0 0 0 0 0 0 0 0 0 127 0" result="hardAlpha"/>
<feOffset dy="4"/>
<feGaussianBlur stdDeviation="7.5"/>
<feComposite in2="hardAlpha" operator="out"/>
<feColorMatrix type="matrix" values="0 0 0 0 0 0 0 0 0 0 0 0 0 0 0 0 0 0 0.25 0"/>
<feBlend mode="normal" in2="BackgroundImageFix" result="effect1_dropShadow_114_70"/>
<feBlend mode="normal" in="SourceGraphic" in2="effect1_dropShadow_114_70" result="shape"/>
</filter>
</defs>
</svg>
