<svg width="1920" height="2668" viewBox="0 0 1920 2668" fill="none" xmlns="http://www.w3.org/2000/svg">
<g filter="url(#filter0_f_116_26)">
<ellipse cx="717" cy="1494.5" rx="566" ry="446.5" fill="#CCE1FF" fill-opacity="0.66"/>
<path d="M1295 1377C703 801 1427 619.667 1863 601C2219 601 2047 1169 1927 1629C1807 2089 239 3517 3.00008 2773C-185.8 2177.8 423 2021 751 2017C1179 2043.67 1887 1953 1295 1377Z" fill="#72A3EB" fill-opacity="0.49" stroke="black"/>
<path d="M287 1469C280.6 931.4 735 975.667 963 1065C3.00012 -247 -425 3173 -329 2649C-252.2 2229.8 1.66678 2125 119 2125C177.667 2130.33 293.4 2006.6 287 1469Z" fill="#EA7F87" fill-opacity="0.6" stroke="black"/>
<path d="M1867 3105C2798.2 3706.6 2383 2390.33 2059 1657C561.4 367.4 91 530.333 43 773C263 1299.67 935.8 2503.4 1867 3105Z" fill="#6969EB" fill-opacity="0.48" stroke="black"/>
</g>
<defs>
<filter id="filter0_f_116_26" x="-942.685" y="0.5" width="3980.49" height="3858.06" filterUnits="userSpaceOnUse" color-interpolation-filters="sRGB">
<feFlood flood-opacity="0" result="BackgroundImageFix"/>
<feBlend mode="normal" in="SourceGraphic" in2="BackgroundImageFix" result="shape"/>
<feGaussianBlur stdDeviation="300" result="effect1_foregroundBlur_116_26"/>
</filter>
</defs>
</svg>
